<svg xmlns="http://www.w3.org/2000/svg" viewBox="0 0 29 29">
 <style>
    .a {
      fill:none;
      stroke: #333;
    }
    @media (prefers-color-scheme: dark) {
      .a {
        fill:none;
        stroke: #eee;
      }
    }
  </style>
  <path class="a"
    d="M3.15 12.62c1.6-2.18 2.84-4.55 4-7m3-9c-1.9 6.38-4.7 12.62-6 19.1.3 3.68 5.68 1.46 6.6-1l1.4-2.1m-8-8h7"
      stroke="black" stroke-width="1.36645" 

  />
  <path class="a"
    d="M12.15 12.62c2.5-5.4 1.76-3.03.27 1.18-1.98 3.77 3.02 5.1 5.1 2.44 1.56-1.28 2.53-2.97 3.63-4.62m1-3c-2.4 6.64-4.1 13.56-7 20-3.85 3.06-3.5-3.64-1.62-5.38 3.73-4.66 10-5.83 13.62-10.62"
      stroke="black" stroke-width="1.36645" 

  />
</svg>
