<svg xmlns="http://www.w3.org/2000/svg" id="canvas" viewBox="626.836 278.326 157.693 256.090"><path d="M 639.65,281.62 C 638.45 282.14, 638.02 282.98, 637.10 284.78 C 636.19 286.57, 635.63 287.63, 635.07 290.62 C 634.50 293.61, 634.66 295.69, 634.27 299.72 C 633.88 303.75, 633.58 306.09, 633.12 310.78 C 632.67 315.47, 632.45 317.93, 632.00 323.18 C 631.55 328.42, 631.27 331.32, 630.88 337.00 C 630.49 342.67, 630.26 345.69, 630.06 351.56 C 629.85 357.42, 629.79 360.46, 629.87 366.31 C 629.95 372.16, 630.07 375.14, 630.45 380.82 C 630.83 386.50, 631.11 389.42, 631.77 394.72 C 632.43 400.02, 632.78 402.64, 633.75 407.31 C 634.71 411.98, 635.40 414.12, 636.60 418.07 C 637.81 422.03, 638.31 423.88, 639.78 427.10 C 641.25 430.31, 641.94 431.90, 643.97 434.17 C 646.00 436.43, 647.39 437.22, 649.92 438.40 C 652.44 439.58, 653.77 439.98, 656.57 440.07 C 659.38 440.16, 661.33 439.89, 663.93 438.86 C 666.52 437.83, 667.82 436.56, 669.54 434.92 C 671.26 433.28, 671.80 432.35, 672.52 430.67 C 673.25 428.99, 673.58 427.73, 673.18 426.54 C 672.78 425.34, 671.69 424.79, 670.52 424.70 C 669.36 424.60, 668.67 425.45, 667.35 426.08 C 666.03 426.71, 665.39 426.96, 663.93 427.85 C 662.47 428.74, 661.58 429.61, 660.03 430.51 C 658.48 431.42, 657.61 432.06, 656.17 432.37 C 654.74 432.68, 654.21 432.70, 652.87 432.08 C 651.52 431.45, 650.88 430.85, 649.45 429.25 C 648.02 427.65, 647.21 426.68, 645.71 424.07 C 644.21 421.46, 643.37 419.79, 641.96 416.21 C 640.54 412.64, 639.75 410.61, 638.62 406.19 C 637.50 401.76, 637.08 399.23, 636.31 394.10 C 635.55 388.96, 635.22 386.07, 634.79 380.51 C 634.35 374.94, 634.22 372.01, 634.14 366.25 C 634.07 360.50, 634.15 357.51, 634.41 351.73 C 634.67 345.95, 634.94 342.96, 635.45 337.36 C 635.97 331.76, 636.30 328.87, 636.98 323.72 C 637.67 318.57, 638.00 316.16, 638.87 311.61 C 639.75 307.06, 640.35 304.83, 641.37 300.99 C 642.39 297.15, 643.34 295.38, 643.97 292.42 C 644.61 289.47, 644.71 288.28, 644.55 286.23 C 644.38 284.18, 644.12 283.10, 643.14 282.18 C 642.16 281.26, 640.86 281.10, 639.65 281.62" style="stroke: black; fill: black;"/><path d="M 685.01,359.97 C 684.01 360.73, 683.68 361.51, 683.41 363.11 C 683.14 364.70, 683.26 365.76, 683.65 367.94 C 684.04 370.12, 684.37 371.39, 685.36 373.99 C 686.34 376.60, 687.19 378.08, 688.59 380.96 C 689.98 383.84, 690.67 385.39, 692.32 388.39 C 693.97 391.40, 694.89 393.01, 696.83 395.98 C 698.78 398.96, 699.78 400.50, 702.05 403.29 C 704.31 406.07, 705.58 407.51, 708.16 409.92 C 710.73 412.32, 712.07 413.54, 714.93 415.32 C 717.78 417.11, 719.33 417.84, 722.45 418.85 C 725.56 419.87, 727.26 420.27, 730.50 420.41 C 733.75 420.56, 735.49 420.38, 738.69 419.57 C 741.88 418.76, 743.61 418.02, 746.46 416.35 C 749.31 414.68, 750.57 413.52, 752.92 411.21 C 755.28 408.89, 756.36 407.55, 758.24 404.76 C 760.11 401.98, 760.94 400.31, 762.28 397.27 C 763.63 394.23, 764.10 392.41, 764.96 389.55 C 765.82 386.70, 766.06 385.42, 766.60 383.00 C 767.15 380.59, 767.70 379.35, 767.68 377.46 C 767.66 375.57, 767.47 374.47, 766.51 373.55 C 765.56 372.62, 764.21 372.31, 762.91 372.82 C 761.61 373.33, 760.56 374.08, 760.00 376.08 C 759.44 378.07, 759.57 379.64, 760.13 382.78 C 760.68 385.93, 761.74 387.82, 762.76 391.81 C 763.78 395.80, 764.25 398.11, 765.23 402.74 C 766.21 407.36, 766.65 409.86, 767.67 414.94 C 768.69 420.02, 769.33 422.72, 770.34 428.12 C 771.35 433.52, 771.85 436.36, 772.74 441.94 C 773.62 447.51, 774.03 450.37, 774.75 456.01 C 775.46 461.65, 775.90 464.65, 776.32 470.13 C 776.74 475.61, 776.91 478.39, 776.86 483.42 C 776.81 488.46, 776.66 490.86, 776.06 495.31 C 775.45 499.76, 775.03 501.97, 773.84 505.67 C 772.64 509.37, 771.87 511.01, 770.09 513.80 C 768.31 516.59, 767.25 517.72, 764.95 519.63 C 762.64 521.54, 761.41 522.28, 758.57 523.36 C 755.72 524.44, 754.19 524.76, 750.73 525.04 C 747.26 525.33, 745.34 525.39, 741.26 524.80 C 737.18 524.21, 734.80 523.64, 730.31 522.11 C 725.83 520.58, 723.33 519.49, 718.82 517.17 C 714.31 514.84, 712.03 513.43, 707.77 510.48 C 703.52 507.52, 701.30 505.82, 697.56 502.40 C 693.82 498.97, 691.92 497.03, 689.08 493.37 C 686.23 489.70, 685.05 487.82, 683.32 484.09 C 681.58 480.35, 680.95 478.38, 680.39 474.68 C 679.83 470.97, 679.81 469.22, 680.51 465.57 C 681.21 461.91, 681.87 460.07, 683.89 456.40 C 685.91 452.74, 687.25 450.75, 690.59 447.26 C 693.94 443.77, 696.05 442.05, 700.61 438.96 C 705.17 435.88, 707.90 434.37, 713.38 431.85 C 718.86 429.32, 721.85 428.17, 728.03 426.32 C 734.20 424.48, 738.31 423.76, 744.24 422.62 C 750.18 421.49, 753.20 421.38, 757.70 420.65 C 762.19 419.91, 764.97 419.89, 766.71 418.96 C 768.45 418.02, 768.30 416.49, 766.38 415.97 C 764.46 415.44, 761.71 415.83, 757.12 416.32 C 752.52 416.81, 749.46 417.18, 743.41 418.41 C 737.36 419.63, 733.20 420.51, 726.86 422.44 C 720.51 424.38, 717.42 425.52, 711.67 428.07 C 705.93 430.61, 703.04 432.03, 698.12 435.18 C 693.20 438.32, 690.84 440.05, 687.06 443.77 C 683.28 447.49, 681.64 449.63, 679.24 453.78 C 676.84 457.92, 675.92 460.17, 675.07 464.52 C 674.22 468.87, 674.29 471.16, 674.99 475.53 C 675.70 479.89, 676.57 482.15, 678.61 486.33 C 680.65 490.51, 682.05 492.51, 685.20 496.43 C 688.35 500.35, 690.38 502.34, 694.35 505.92 C 698.32 509.51, 700.62 511.24, 705.05 514.37 C 709.48 517.49, 711.81 518.99, 716.50 521.54 C 721.19 524.09, 723.75 525.33, 728.51 527.12 C 733.27 528.92, 735.79 529.69, 740.31 530.53 C 744.83 531.37, 747.01 531.54, 751.13 531.34 C 755.25 531.13, 757.30 530.88, 760.90 529.52 C 764.50 528.16, 766.28 527.06, 769.15 524.54 C 772.03 522.02, 773.28 520.39, 775.27 516.92 C 777.26 513.46, 777.96 511.44, 779.11 507.24 C 780.27 503.03, 780.55 500.65, 781.03 495.89 C 781.51 491.13, 781.57 488.65, 781.51 483.42 C 781.46 478.19, 781.24 475.36, 780.75 469.76 C 780.26 464.17, 779.80 461.16, 779.08 455.46 C 778.35 449.76, 777.95 446.90, 777.12 441.27 C 776.29 435.64, 775.82 432.76, 774.92 427.32 C 774.02 421.87, 773.43 419.15, 772.64 414.05 C 771.84 408.94, 771.48 406.45, 770.93 401.79 C 770.37 397.13, 770.04 394.78, 769.87 390.75 C 769.69 386.72, 770.22 384.72, 770.06 381.65 C 769.91 378.59, 769.91 377.27, 769.08 375.43 C 768.26 373.59, 767.35 373.01, 765.92 372.46 C 764.49 371.90, 763.21 371.96, 761.94 372.65 C 760.67 373.35, 760.26 374.25, 759.57 375.93 C 758.88 377.60, 759.07 378.80, 758.48 381.02 C 757.89 383.25, 757.39 384.45, 756.62 387.06 C 755.85 389.68, 755.67 391.45, 754.65 394.09 C 753.62 396.72, 753.00 398.01, 751.50 400.25 C 750.00 402.48, 749.02 403.50, 747.16 405.27 C 745.31 407.04, 744.35 407.87, 742.23 409.09 C 740.11 410.32, 738.86 410.79, 736.57 411.40 C 734.28 412.01, 733.13 412.17, 730.78 412.13 C 728.43 412.09, 727.19 411.87, 724.82 411.19 C 722.45 410.51, 721.25 410.08, 718.93 408.73 C 716.60 407.37, 715.44 406.44, 713.21 404.42 C 710.97 402.41, 709.77 401.13, 707.76 398.65 C 705.74 396.17, 704.81 394.77, 703.13 392.01 C 701.46 389.25, 700.66 387.73, 699.39 384.87 C 698.12 382.01, 697.65 380.55, 696.79 377.72 C 695.93 374.90, 695.82 373.28, 695.10 370.76 C 694.39 368.23, 694.05 367.00, 693.22 365.09 C 692.39 363.18, 691.94 362.36, 690.97 361.20 C 690.01 360.04, 689.59 359.56, 688.39 359.31 C 687.20 359.07, 686.00 359.21, 685.01 359.97" style="stroke: black; fill: black;"/></svg>